# xmcd CD database generated by RipIT
#
# Track frame offsets:
# 150
# 19942
# 27972
# 62782
# 75737
# 90385
# 104207
# 127262
# 160895
# 178310
#
# Disc length: 2577 seconds
#
# Revision: 5
# Processed by: cddbd v1.5.2PL0 Copyright (c) Steve Scherf et al.
# Submitted via: RipIT 3.7.0-beta20081019 www.suwald.com/ripit/ripit.html on 2009-01-15 at 14:49
#
DISCID=890a0f0a
DTITLE=Various New Age - Pioneers of the New Age
DYEAR=1988
DGENRE=New Age
TTITLE0=Weather Report - Morning Lake
TTITLE1=Wendy Carlos - A Theme From A Clockwork Orange (Beethoviana)
TTITLE2=Jeane-Pierre Rampal, Claude Bolling - Sentimentale
TTITLE3=Baden Powell - Fim Da Linha (End of the Line)
TTITLE4=Carlos Santana, John McLaughlin - Naima
TTITLE5=Paul Winter, Winter Consort - Icarus
TTITLE6=Dave Brubeck Quartet - Fujiyama
TTITLE7=Terry Riley - Across The Lake Of The Ancient Word
TTITLE8=Shakti - Bridge Of Sighs
TTITLE9=Paul Horn - Mumtez Mahal
EXTD=
EXTT0=
EXTT1=
EXTT2=
EXTT3=
EXTT4=
EXTT5=
EXTT6=
EXTT7=
EXTT8=
EXTT9=
PLAYORDER=
